<?xml version="1.0" encoding="iso-8859-1"?>
<!-- Generator: Adobe Illustrator 19.0.0, SVG Export Plug-In . SVG Version: 6.00 Build 0)  -->
<svg version="1.1" id="Capa_1" xmlns="http://www.w3.org/2000/svg" xmlns:xlink="http://www.w3.org/1999/xlink" x="0px" y="0px"
	 viewBox="0 0 512 512" style="enable-background:new 0 0 512 512;" xml:space="preserve">
<circle style="fill:#53506D;" cx="256" cy="257.134" r="254.866"/>
<path style="fill:#F9CEBB;" d="M442.302,431.046C395.781,480.865,329.526,512,256,512c-51.14,0-98.774-15.063-138.678-41.007
	c-17.466-11.349-33.455-24.769-47.613-39.936c22.792-25.081,50.588-45.533,81.807-59.795
	c31.822-14.543,67.201-22.647,104.485-22.647c37.273,0,72.652,8.104,104.474,22.647
	C391.693,385.524,419.489,405.976,442.302,431.046z"/>
<circle style="fill:#F4B298;" cx="454.14" cy="191.295" r="48.279"/>
<circle style="fill:#D88F7C;" cx="445.693" cy="199.337" r="31.785"/>
<circle style="fill:#EAA48C;" cx="57.855" cy="191.295" r="48.279"/>
<circle style="fill:#D88F7C;" cx="66.304" cy="199.337" r="31.785"/>
<path style="fill:#F4B298;" d="M360.474,371.263c-30.345,14.47-66.14,21.971-104.474,21.971c-16.551,0-31.52-1.404-45.616-4.161
	c-25.216-4.931-51.077,5.597-65.849,26.6c-11.173,15.895-20.909,34.142-28.847,54.24c-16.832-11.11-32.269-24.165-45.98-38.854
	c44.482-48.934,107.99-80.267,178.854-82.327c0.385-0.01,0.78-0.021,1.176-0.031c2.081-0.052,4.171-0.083,6.262-0.083
	C293.273,348.615,328.652,356.719,360.474,371.263z"/>
<path style="fill:#F9CEBB;" d="M454.303,200.917c0,109.521-88.784,170.769-198.306,170.769S57.691,310.438,57.691,200.917
	S146.476,2.612,255.997,2.612S454.303,91.396,454.303,200.917z"/>
<g>
	<path style="fill:#F4B298;" d="M256.003,371.68c-109.524,0-198.312-61.251-198.312-170.763c0-108.913,87.795-197.318,196.468-198.3
		c-77.844,1.377-140.64,89.627-140.64,198.3C113.519,310.429,177.309,371.68,256.003,371.68z"/>
	<path style="fill:#F4B298;" d="M274.554,175.709H237.44c-6.612,0-11.972,5.361-11.972,11.972l0,0
		c0,6.612,5.361,11.972,11.972,11.972h37.115c6.612,0,11.972-5.361,11.972-11.972l0,0
		C286.527,181.069,281.166,175.709,274.554,175.709z"/>
	<path style="fill:#F4B298;" d="M255.997,150.754L255.997,150.754c-7.604,0-13.768,6.165-13.768,13.768v23.16h27.537v-23.16
		C269.765,156.919,263.601,150.754,255.997,150.754z"/>
</g>
<path style="fill:#BA6041;" d="M255.997,2.612c-49.682,22.471-50.491,94.044-5.983,115.258
	c64.053,30.53,87.399-52.679,87.399-52.679s-41.904,27.537-53.876,0c-11.972-27.537,36.428-52.575,64.308-40.056l-0.076-0.064
	C322.4,3.592,288.417-4.725,255.997,2.612L255.997,2.612z"/>
<path style="fill:#A04E38;" d="M273.959,117.87c5.136,2.443,10.009,4.166,14.63,5.244c-10.764,2.825-23.55,1.915-38.575-5.244
	c-44.513-21.215-43.7-92.787,5.987-115.259c11.733-2.658,23.669-3.256,35.331-1.928c-3.807,0.431-7.602,1.078-11.386,1.928
	C230.26,25.083,229.446,96.655,273.959,117.87z"/>
<g>
	<path style="fill:#D88F7C;" d="M372.66,172.473c-5.171,0-9.362-4.192-9.362-9.362c0-12.045-9.799-21.845-21.844-21.845
		c-12.045,0-21.845,9.799-21.845,21.845c0,5.17-4.191,9.362-9.362,9.362c-5.171,0-9.362-4.192-9.362-9.362
		c0-22.37,18.2-40.569,40.569-40.569s40.568,18.2,40.568,40.569C382.022,168.281,377.831,172.473,372.66,172.473z"/>
	<path style="fill:#D88F7C;" d="M201.747,172.473c-5.171,0-9.362-4.192-9.362-9.362c0-12.045-9.799-21.845-21.845-21.845
		c-12.045,0-21.845,9.799-21.845,21.845c0,5.17-4.191,9.362-9.362,9.362s-9.362-4.192-9.362-9.362
		c0-22.37,18.2-40.569,40.569-40.569s40.569,18.2,40.569,40.569C211.109,168.281,206.918,172.473,201.747,172.473z"/>
</g>
<path style="fill:#53506D;" d="M334.928,299.774c0,9.186-1.571,15.219-4.452,19.027c-3.204,4.234-8.041,5.701-14.158,5.69
	c-14.481-0.042-36.129-8.468-60.325-8.468c-24.186,0-45.834,8.426-60.315,8.468c-6.106,0.01-10.944-1.456-14.148-5.68
	c-2.892-3.807-4.463-9.841-4.463-19.037c0-43.598,35.338-78.936,78.925-78.936c5.867,0,11.599,0.645,17.102,1.862
	c6.034,1.332,11.807,3.35,17.237,5.971C316.724,241.446,334.928,268.482,334.928,299.774z"/>
<path style="fill:#FF80B0;" d="M316.318,324.49c-14.481-0.042-36.129-8.468-60.325-8.468c-24.186,0-45.834,8.426-60.315,8.468
	c14.481-17.133,36.129-28.014,60.315-28.014c5.867,0,11.599,0.645,17.102,1.862c6.034,1.332,11.807,3.35,17.237,5.971
	C300.36,309.157,309.203,316.075,316.318,324.49z"/>
<path style="fill:#FFFFFF;" d="M290.332,228.671v11.36c0,4.754-3.859,8.613-8.624,8.613c-4.754,0-8.613-3.859-8.613-8.613V222.7
	C279.128,224.032,284.902,226.05,290.332,228.671z"/>
<path style="fill:#E5B7A5;" d="M238.977,343.033c11.13-3.142,22.916-3.142,34.046,0c2.95,0.833,6.044-0.741,7.128-3.609
	c0.015-0.037,0.028-0.075,0.043-0.112c1.22-3.229-0.554-6.85-3.876-7.79c-13.282-3.758-27.353-3.758-40.635,0
	c-3.322,0.939-5.095,4.562-3.876,7.79c0.015,0.037,0.028,0.075,0.043,0.112C232.933,342.293,236.027,343.866,238.977,343.033z"/>
<g>
	<path style="fill:#53CEEA;" d="M375.753,182.934c63.74,16.173,118.919,57.082,88.001,88.001
		C432.833,301.853,391.926,246.675,375.753,182.934z"/>
	<path style="fill:#53CEEA;" d="M136.241,182.934c-63.74,16.173-118.919,57.082-88.001,88.001
		C79.16,301.853,120.068,246.675,136.241,182.934z"/>
</g>
<g>
	<circle style="fill:#63DCEF;" cx="450.915" cy="241.467" r="12.072"/>
	<circle style="fill:#63DCEF;" cx="73.722" cy="255.813" r="12.072"/>
</g>
<g>
</g>
<g>
</g>
<g>
</g>
<g>
</g>
<g>
</g>
<g>
</g>
<g>
</g>
<g>
</g>
<g>
</g>
<g>
</g>
<g>
</g>
<g>
</g>
<g>
</g>
<g>
</g>
<g>
</g>
</svg>
