<svg id="Capa_1" enable-background="new 0 0 501 501" height="512" viewBox="0 0 501 501" width="512" xmlns="http://www.w3.org/2000/svg"><path d="m501 250.5c0 135.31-109.69 245-245 245s-245-109.69-245-245 109.69-245 245-245 245 109.69 245 245z" fill="#0ed1b2"/><path d="m470 222.017c0 98.04-80.442 177.517-179.672 177.517s-179.672-79.477-179.672-177.517 80.441-177.517 179.672-177.517 179.672 79.477 179.672 177.517z" fill="#5de0c3"/><path d="m290.328 119.5c0 8.284-6.716 15-15 15h-260.328c-8.284 0-15-6.716-15-15 0-8.284 6.716-15 15-15h260.328c8.284 0 15 6.716 15 15zm24.672-75h-90c-8.284 0-15 6.716-15 15s6.716 15 15 15h90c8.284 0 15-6.716 15-15s-6.716-15-15-15zm160 170h-90c-8.284 0-15 6.716-15 15 0 8.284 6.716 15 15 15h90c8.284 0 15-6.716 15-15 0-8.284-6.716-15-15-15z" fill="#89e9d9"/><path d="m40 134.5h-25c-8.284 0-15-6.716-15-15s6.716-15 15-15h25c-8.284 0-15 6.716-15 15s6.716 15 15 15z" fill="#5de0c3"/><path d="m307.086 315.854c-61.613 0-111.56-50.553-111.56-112.914s49.947-112.914 111.56-112.914 111.56 50.553 111.56 112.914-49.948 112.914-111.56 112.914z" fill="#fff2b4"/><path d="m246.599 297.833c-30.732-20.11-51.073-55.097-51.073-94.892 0-62.361 49.947-112.914 111.56-112.914 38.834 0 73.033 20.083 93.013 50.548-17.426-11.402-38.192-18.022-60.487-18.022-61.613 0-111.56 50.553-111.56 112.914 0 23.055 6.828 44.496 18.547 62.366z" fill="#ffdf8e"/><path d="m256 495.5c-133.795 0-242.54-107.248-244.959-240.465 56.351-21.331 85.834-52.974 111.679-54.013 10.325-.415 39.374 16.291 71.652 37.334 85.167 55.524 184.56 85.407 286.227 85.016.388-.001.769-.002 1.143-.002h8.239c-31.024 99.724-124.047 172.13-233.981 172.13z" fill="#fdbf43"/><path d="m134.655 250.5c0-4.142 3.358-7.5 7.5-7.5s7.5 3.358 7.5 7.5-3.358 7.5-7.5 7.5-7.5-3.358-7.5-7.5zm7.5 91.666c4.142 0 7.5-3.358 7.5-7.5s-3.358-7.5-7.5-7.5-7.5 3.358-7.5 7.5 3.358 7.5 7.5 7.5zm35.121-49.045c4.142 0 7.5-3.358 7.5-7.5s-3.358-7.5-7.5-7.5-7.5 3.358-7.5 7.5 3.358 7.5 7.5 7.5zm-88.452 89.379c-15.01-37.673-11.108-80.477 9.445-114.644 1.313 1.128 3.02 1.811 4.886 1.811 4.142 0 7.5-3.358 7.5-7.5 0-2.863-1.604-5.351-3.963-6.615 12.289-15.855 28.645-29.14 48.789-38.148 1.015-.454 1.994-.876 2.935-1.264-16.441-9.395-29.472-15.368-35.696-15.117-25.845 1.04-55.328 32.682-111.679 54.013.851 46.886 14.873 90.556 38.523 127.465h39.26z" fill="#fd8f01"/><path d="m402.487 278.09c32.04-.361 64.108 4.101 95.103 13.372-19.492 115.81-120.238 204.038-241.59 204.038-102.39 0-190.109-62.809-226.732-152l.115.06c80.245 42.296 177.827 33.666 249.456-21.99 35.412-27.515 78.806-42.975 123.648-43.48z" fill="#e27500"/><path d="m438.086 279.677c-12.385 1.54-24.016 5.458-35.091 11.235 2.704 1.133 4.604 3.805 4.604 6.92 0 4.142-3.358 7.5-7.5 7.5s-7.5-3.358-7.5-7.5c0-.306.019-.607.054-.903-24.464 15.709-46.373 40.195-68.065 67.304 1.772 1.372 2.913 3.519 2.913 5.933 0 4.142-3.358 7.5-7.5 7.5-1.784 0-3.423-.624-4.71-1.664-3.753 4.801-7.51 9.654-11.282 14.528-10.125 13.08-20.373 26.318-30.976 39.094 1.123 1.311 1.802 3.014 1.802 4.876 0 4.142-3.358 7.5-7.5 7.5-1.424 0-2.756-.397-3.89-1.086-16.19 18.59-33.328 35.73-52.187 49.339-.432.312-.864.621-1.296.927 14.912 2.835 30.302 4.32 46.04 4.32 121.352 0 222.098-88.228 241.591-204.038-19.504-5.834-39.43-9.763-59.507-11.785zm-118.086 162.323c-4.142 0-7.5-3.358-7.5-7.5s3.358-7.5 7.5-7.5 7.5 3.358 7.5 7.5-3.358 7.5-7.5 7.5zm60.167-92.334c-4.142 0-7.5-3.358-7.5-7.5s3.358-7.5 7.5-7.5 7.5 3.358 7.5 7.5-3.358 7.5-7.5 7.5zm52.16-7.5c-4.142 0-7.5-3.358-7.5-7.5s3.358-7.5 7.5-7.5 7.5 3.358 7.5 7.5-3.358 7.5-7.5 7.5z" fill="#fd8f01"/></svg>