<?xml version="1.0" standalone="no"?>
<!DOCTYPE svg PUBLIC "-//W3C//DTD SVG 20010904//EN"
 "http://www.w3.org/TR/2001/REC-SVG-20010904/DTD/svg10.dtd">
<svg version="1.0" xmlns="http://www.w3.org/2000/svg"
 width="558.000000pt" height="558.000000pt" viewBox="0 0 558.000000 558.000000"
 preserveAspectRatio="xMidYMid meet">
<metadata>
Created by potrace 1.11, written by Peter Selinger 2001-2013
</metadata>
<g transform="translate(0.000000,558.000000) scale(0.100000,-0.100000)"
fill="#000000" stroke="none">
<path d="M2530 5560 c-25 -4 -72 -10 -105 -14 -33 -3 -71 -8 -85 -11 -14 -3
-41 -8 -60 -11 -70 -12 -267 -64 -360 -94 -294 -97 -602 -265 -858 -467 -117
-92 -353 -328 -441 -440 -55 -71 -201 -280 -201 -288 0 -2 -19 -36 -43 -77
-149 -253 -269 -592 -321 -903 -14 -87 -17 -111 -32 -255 -3 -36 -6 -130 -6
-210 1 -215 16 -356 67 -615 15 -81 87 -317 115 -380 5 -11 20 -48 34 -82 73
-176 236 -463 331 -581 7 -10 42 -53 77 -97 71 -90 287 -310 363 -370 28 -22
52 -42 55 -45 14 -16 135 -103 210 -152 236 -154 466 -261 730 -341 115 -35
325 -81 410 -91 25 -3 74 -9 110 -13 125 -15 553 -8 656 11 10 2 39 7 64 11
411 67 802 224 1130 453 197 137 314 239 496 433 98 105 276 351 347 479 156
284 272 596 313 840 3 14 9 48 14 75 43 223 48 605 10 865 -74 519 -303 1021
-644 1415 -423 489 -998 815 -1626 924 -63 11 -135 23 -160 26 -70 10 -539 14
-590 5z"/>
</g>
</svg>
