<?xml version="1.0" standalone="no"?>
<!DOCTYPE svg PUBLIC "-//W3C//DTD SVG 20010904//EN"
 "http://www.w3.org/TR/2001/REC-SVG-20010904/DTD/svg10.dtd">
<svg version="1.0" xmlns="http://www.w3.org/2000/svg"
 width="558.000000pt" height="558.000000pt" viewBox="0 0 558.000000 558.000000"
 preserveAspectRatio="xMidYMid meet">
<metadata>
Created by potrace 1.11, written by Peter Selinger 2001-2013
</metadata>
<g transform="translate(0.000000,558.000000) scale(0.100000,-0.100000)"
fill="#000000" stroke="none">
<path d="M3785 4656 c-252 -37 -480 -204 -590 -431 -74 -152 -89 -250 -75
-500 3 -51 -1 -78 -13 -100 -8 -16 -122 -136 -251 -265 -130 -129 -236 -237
-236 -240 0 -3 39 -43 88 -87 48 -45 90 -84 93 -88 3 -3 23 8 44 25 100 80
284 80 392 0 23 -17 57 -54 75 -81 l32 -50 110 109 c173 170 183 174 358 146
107 -17 116 -17 222 0 127 21 210 52 315 120 106 69 166 129 236 236 66 102
107 205 124 311 13 76 14 169 4 169 -5 0 -28 -11 -53 -23 -79 -41 -384 -206
-410 -222 -48 -29 -180 -95 -191 -95 -6 0 -73 37 -150 83 l-139 82 3 173 2
174 60 32 c33 18 121 65 195 106 74 40 169 91 210 113 41 22 106 57 143 78
l69 37 -65 46 c-174 124 -384 174 -602 142z"/>
<path d="M1059 4278 c-64 -68 -72 -95 -42 -138 33 -48 169 -216 236 -293 75
-85 96 -98 177 -117 l55 -12 530 -531 c292 -293 550 -554 574 -580 l44 -48
-66 -67 c-70 -71 -87 -102 -87 -157 0 -98 73 -166 192 -178 150 -15 274 -140
294 -297 4 -30 13 -66 20 -80 12 -24 415 -428 674 -676 130 -125 143 -132 273
-159 40 -8 143 13 196 40 62 31 251 217 286 280 39 72 46 195 15 280 -20 57
-40 78 -393 429 -205 203 -386 379 -403 392 -18 14 -60 29 -105 38 -102 20
-164 49 -216 101 -53 54 -76 103 -98 210 -20 100 -60 148 -135 164 -77 17
-124 -3 -212 -87 -31 -30 -61 -52 -67 -51 -11 5 -470 442 -680 649 -37 36
-107 103 -156 149 -50 46 -144 137 -211 202 -116 114 -122 121 -138 183 -10
35 -27 78 -39 94 -24 34 -139 129 -296 245 -133 98 -142 99 -222 15z"/>
<path d="M2059 2576 c-583 -567 -934 -916 -958 -951 -94 -135 -75 -329 41
-441 73 -70 131 -97 225 -102 96 -5 156 7 219 46 24 16 245 226 490 467 442
435 446 439 423 455 -59 39 -136 127 -152 175 -34 98 -16 217 43 298 l29 40
-25 32 c-13 18 -55 59 -92 92 l-67 60 -176 -171z"/>
</g>
</svg>
